<svg xmlns="http://www.w3.org/2000/svg" width="100" height="100"><g fill="#fff"><rect x="28.95" y="71.453" width="30.883" height="6.596"/><rect x="59.371" y="22.741" transform="matrix(.171 .985 -.985 .171 87.671 -52.124)" width="30.881" height="6.596"/><rect x="29.459" y="61.557" transform="matrix(.996 .092 -.092 .996 6.136 -3.844)" width="30.881" height="6.596"/><rect x="31.398" y="50.259" transform="matrix(.966 .26 -.26 .966 15.509 -10.323)" width="30.883" height="6.596"/><rect x="36.082" y="38.535" transform="matrix(.861 .508 -.508 .861 28.396 -20.375)" width="30.884" height="6.595"/><rect x="46.156" y="28.018" transform="matrix(.563 .826 -.826 .563 52.763 -37.218)" width="30.883" height="6.596"/><path d="M65.079 56.345v26.965h-40.506v-26.965h-5.275v32.139h.052c0 .025 1.54.025 1.54.025h49.413v-.025c.052 0 .052-1.541.052-1.541v-30.598h-5.276z"/></g></svg>