<svg xmlns="http://www.w3.org/2000/svg" width="100" height="100"><g><path fill="#fff" d="M84.174 89.766h-70.008c-2.63 0-4.762-2.132-4.762-4.762v-70.008c0-2.63 2.132-4.762 4.762-4.762h70.008c2.63 0 4.762 2.132 4.762 4.762v70.007c0 2.631-2.132 4.763-4.762 4.763z"/><path fill="#231F20" d="M45.793 43.081l7.97-11.547c1.506-2.175 3.452-3.263 5.837-3.263 1.945 0 3.629.69 5.052 2.071 1.422 1.381 2.133 3.034 2.133 4.958 0 1.423-.376 2.678-1.129 3.765l-7.186 10.449 8.786 11.139c.879 1.109 1.318 2.406 1.318 3.891 0 1.967-.69 3.656-2.071 5.067-1.381 1.412-3.055 2.118-5.021 2.118-2.155 0-3.797-.7-4.927-2.102l-10.762-13.43v7.405c0 2.113-.366 3.755-1.098 4.926-1.339 2.133-3.284 3.2-5.836 3.2-2.322 0-4.122-.785-5.397-2.353-1.192-1.444-1.788-3.358-1.788-5.742v-27.455c0-2.259.606-4.12 1.82-5.585 1.276-1.548 3.033-2.322 5.271-2.322 2.134 0 3.912.774 5.334 2.322.794.858 1.297 1.725 1.505 2.604.126.544.189 1.558.189 3.043v6.841z"/></g></svg>