<svg xmlns="http://www.w3.org/2000/svg" width="100" height="100" viewBox="0 0 100 100"><g fill="#fff"><path d="M28.95 71.453h30.883v6.596H28.95zM75.416 10.263l5.28 30.427-6.498 1.128-5.28-30.427zM29.826 60.156l30.75 2.832-.603 6.568-30.752-2.83zM32.783 46.363l29.823 8.017-1.712 6.37-29.824-8.017zM39.898 31.145l26.6 15.69-3.35 5.68-26.6-15.69zM55.62 16.702l17.398 25.515-5.45 3.717-17.4-25.516zM65.08 56.345V83.31H24.572V56.345h-5.275v32.14h.052c0 .024 1.54.024 1.54.024h49.413v-.026c.052 0 .052-1.54.052-1.54v-30.6H65.08z"/></g></svg>