<svg xmlns="http://www.w3.org/2000/svg" width="100" height="100" viewBox="0 0 100 100"><g fill="#fff"><path d="M28.95 71.453h30.883v6.596h-30.883zM75.416 10.263l5.281 30.427-6.499 1.128-5.281-30.427zM29.826 60.156l30.751 2.832-.605 6.568-30.751-2.832zM32.783 46.363l29.824 8.017-1.712 6.37-29.824-8.017zM39.898 31.145l26.6 15.689-3.35 5.68-26.6-15.689zM55.619 16.702l17.399 25.516-5.45 3.716-17.399-25.516zM65.079 56.345v26.965h-40.506v-26.965h-5.275v32.139h.052c0 .025 1.54.025 1.54.025h49.413v-.025c.052 0 .052-1.541.052-1.541v-30.598h-5.276z"/></g></svg>