<svg xmlns="http://www.w3.org/2000/svg" width="100" height="100" viewBox="0 0 100 100"><path fill="#fff" d="M71.308 49.022h-.212c-2.232 9.69-12.15 15.338-21.514 15.338-15.23 0-22.8-12.154-22.8-26.213 0-14.698 8.11-26.84 23.542-26.84 10.448 0 18.65 6.927 20.772 15.873h.212V12.583h2.135v52.94c0 14.912-8.527 21.942-22.807 21.942-11.072 0-20.56-5.003-20.88-17.258h2.142c.426 10.866 8.734 15.125 18.634 15.125 13.214 0 20.775-6.28 20.775-19.808V49.022zm-20.984-35.58c-14.172 0-21.413 11.395-21.413 24.705 0 13.526 7.242 24.087 20.55 24.087 14.072 0 21.75-10.888 21.75-24.087.098-12.577-7.136-24.705-20.886-24.705"/></svg>