<svg xmlns="http://www.w3.org/2000/svg" width="100" height="100" viewBox="0 0 100 100"><path fill="#fff" d="M71.308 49.022h-.212c-2.232 9.689-12.149 15.338-21.514 15.338-15.229 0-22.799-12.154-22.799-26.213 0-14.698 8.11-26.841 23.541-26.841 10.448 0 18.649 6.928 20.772 15.874h.212v-14.597h2.135v52.941c0 14.911-8.527 21.941-22.807 21.941-11.072 0-20.56-5.003-20.88-17.258h2.142c.426 10.866 8.734 15.125 18.634 15.125 13.214 0 20.775-6.28 20.775-19.808v-16.502zm-20.984-35.58c-14.172 0-21.413 11.395-21.413 24.705 0 13.526 7.241 24.087 20.548 24.087 14.073 0 21.75-10.888 21.75-24.087.099-12.577-7.135-24.705-20.885-24.705"/></svg>