<svg xmlns="http://www.w3.org/2000/svg" width="100" height="100" viewBox="0 0 100 100"><g><path fill="#fff" d="M84.174 89.766H14.166c-2.63 0-4.762-2.132-4.762-4.762V14.996c0-2.63 2.132-4.762 4.762-4.762h70.008c2.63 0 4.762 2.132 4.762 4.762v70.007c0 2.63-2.132 4.763-4.762 4.763z"/><path fill="#231F20" d="M45.793 43.08l7.97-11.546c1.506-2.175 3.452-3.263 5.837-3.263 1.945 0 3.63.69 5.052 2.072 1.422 1.38 2.133 3.034 2.133 4.958 0 1.423-.376 2.678-1.13 3.765l-7.185 10.45 8.786 11.138c.88 1.11 1.318 2.406 1.318 3.89 0 1.968-.69 3.657-2.07 5.068-1.382 1.413-3.056 2.12-5.022 2.12-2.155 0-3.797-.7-4.927-2.103l-10.762-13.43v7.405c0 2.113-.366 3.755-1.098 4.926-1.34 2.133-3.284 3.2-5.836 3.2-2.323 0-4.123-.785-5.398-2.353-1.192-1.444-1.788-3.358-1.788-5.742V36.178c0-2.26.606-4.12 1.82-5.585 1.276-1.548 3.033-2.322 5.27-2.322 2.135 0 3.913.775 5.335 2.323.793.858 1.296 1.725 1.504 2.604.126.544.19 1.558.19 3.043v6.84z"/></g></svg>