<svg xmlns="http://www.w3.org/2000/svg" width="100" height="100" viewBox="0 0 100 100"><path d="M35.697 59.825c1.196-1.103.403-4.605.403-4.605s-1.647 3.138-3.296 5.117c-1.649 1.973-4.134 2.708-4.134 2.708s2.74.74 7.027-3.22zM61.447 70.287c1.987 6.928-4.173 13.087-4.173 13.087 4.617-1.98 6.086-8.594 5.917-10.247-.162-1.65-1.744-2.84-1.744-2.84z" fill="none"/><path fill="#fff" d="M60.685 67.426c-2.828-4.314-8.023-8.189-18.334-12.705l-1.291-4.685c-3.126-.982-8.448-3.217-9.693-4.772-1.318-1.651-.987-5.772-.987-5.772s.987 3.135 1.978 4.453c.99 1.319 8.559 4.25 8.559 4.25l.008.023c3.392.996 27.691 7.525 34.523-7.856 6.347-14.282-26.753-41.884-44.35-22.64-4.558 4.987-7.807 12.643-5.909 22.128l1.806 14.304-6.058 1.8s-.516 2.709.9 7.09c.756-3.073.205-4.088 1.421-4.768h3.996l.254 1.161s-1.675 2.832-2.706 3.994c-1.158 2.321-.512 5.8-.512 5.8l2.062-4.64 2.319-1.548s2.485-.735 4.134-2.708c1.649-1.98 3.296-5.117 3.296-5.117s.793 3.502-.403 4.605c-4.287 3.96-7.027 3.22-7.027 3.22 2.834 13.531 9.358 18.017 9.358 18.017-9.348 2.036-10.009 7.809-10.009 7.809l1.815-1.223h24.25c19.132-10.652 25.073-29.241 25.073-29.241s-11.647 10.828-18.473 9.021zm-3.412 15.947s6.16-6.159 4.173-13.087c0 0 1.582 1.19 1.744 2.839.17 1.655-1.3 8.269-5.917 10.248z"/><path fill="#231F20" d="M65.059 31.006c-1.925 6.085-9.598 9.08-17.146 6.696-7.538-2.388-12.098-9.253-10.175-15.335 1.929-6.085 9.602-9.08 17.148-6.696 7.542 2.389 12.098 9.255 10.173 15.335z"/><path fill="#fff" d="M53.575 26.323c-1.413 3.635-3.205 6.329-3.991 6.021-.787-.307-.276-3.5 1.146-7.127 1.412-3.635 3.192-6.331 3.984-6.022.79.308.276 3.501-1.139 7.128z"/><circle fill="#231F20" cx="51.87" cy="26.909" r=".921"/><circle fill="#231F20" cx="52.176" cy="25.475" r=".566"/></svg>