<svg xmlns="http://www.w3.org/2000/svg" width="100" height="100" viewBox="0 0 100 100"><path d="M35.697 59.825c1.196-1.103.403-4.605.403-4.605s-1.647 3.138-3.296 5.117c-1.65 1.973-4.134 2.708-4.134 2.708s2.74.74 7.027-3.22zM61.447 70.287c1.987 6.928-4.173 13.087-4.173 13.087 4.617-1.98 6.086-8.594 5.917-10.247-.16-1.65-1.743-2.84-1.743-2.84z" fill="none"/><path fill="#fff" d="M60.685 67.426c-2.828-4.314-8.023-8.19-18.334-12.705l-1.29-4.684c-3.126-.982-8.448-3.217-9.693-4.772-1.318-1.65-.987-5.772-.987-5.772s.987 3.135 1.978 4.453c.99 1.32 8.56 4.25 8.56 4.25l.007.023c3.392.996 27.69 7.525 34.523-7.856 6.347-14.282-26.753-41.884-44.35-22.64-4.558 4.987-7.807 12.643-5.91 22.128l1.807 14.304-6.058 1.8s-.516 2.71.9 7.09c.756-3.073.205-4.088 1.42-4.768h3.997l.254 1.16s-1.675 2.833-2.706 3.995c-1.158 2.322-.512 5.8-.512 5.8l2.062-4.64 2.32-1.547s2.484-.735 4.133-2.708c1.65-1.98 3.296-5.117 3.296-5.117s.794 3.502-.402 4.605c-4.287 3.96-7.027 3.22-7.027 3.22 2.835 13.53 9.36 18.017 9.36 18.017-9.35 2.036-10.01 7.81-10.01 7.81l1.815-1.224h24.25c19.132-10.652 25.073-29.24 25.073-29.24s-11.647 10.827-18.473 9.02zm-3.412 15.947s6.16-6.16 4.173-13.087c0 0 1.582 1.19 1.744 2.84.17 1.654-1.3 8.268-5.917 10.247z"/><path fill="#231F20" d="M65.06 31.006c-1.926 6.085-9.6 9.08-17.147 6.696-7.538-2.388-12.098-9.253-10.175-15.335 1.93-6.085 9.602-9.08 17.148-6.696 7.542 2.39 12.098 9.256 10.173 15.336z"/><path fill="#fff" d="M53.575 26.323c-1.413 3.635-3.205 6.33-3.99 6.02-.788-.306-.277-3.5 1.145-7.126 1.412-3.635 3.192-6.33 3.984-6.022.79.308.276 3.5-1.14 7.128z"/><circle fill="#231F20" cx="51.87" cy="26.909" r=".921"/><circle fill="#231F20" cx="52.176" cy="25.475" r=".566"/></svg>