<svg xmlns="http://www.w3.org/2000/svg" width="100" height="100" viewBox="0 0 100 100"><g fill="#fff"><path d="M11.243 48.963v-.725l.134-.254c.246-.695.848-1.062 1.581-.971.441.055.829.235 1.193.476l.794.55.224.118v-29.534l.003-.574c.032-1.194.299-2.334.853-3.393 1.03-1.969 2.593-3.275 4.786-3.776l.7-.147h55.441l.226.063c.333.073.675.119 1 .218 1.988.61 3.399 1.899 4.322 3.738.569 1.134.806 2.345.805 3.615-.006 9.76-.003 19.52-.003 29.28l.001.272.032.215.253-.16.643-.45c.405-.274.838-.475 1.333-.524.583-.058 1.136.237 1.396.758l.139.358v1.027l-.148.45c-.163.443-.459.798-.765 1.147-1.639 1.873-3.52 3.474-5.543 4.913-3.038 2.16-6.312 3.888-9.746 5.325l-.306.141.352 1.296c.62 2.359 1.039 4.752 1.158 7.191.072 1.468.035 2.935-.149 4.397-.191 1.512-.521 2.989-1.047 4.419-.972 2.638-2.472 4.914-4.663 6.703-1.713 1.399-3.647 2.339-5.83 2.745l-.912.167h-2.235l-.166-.055c-.491-.104-.993-.169-1.472-.313-2.122-.638-3.718-1.911-4.648-3.954-.535-1.174-.717-2.418-.717-3.701 0-4.669-.007-9.337-.013-14.006l-.02-.279-2.029-.507v.364l-.023 10.535c-.003 1.248-.012 2.495-.007 3.743.003.686-.024 1.367-.15 2.043-.258 1.373-.809 2.607-1.756 3.647-1.124 1.234-2.537 1.952-4.152 2.299-.322.069-.648.123-.973.184h-2.174l-.169-.052c-1.716-.195-3.31-.753-4.796-1.617-2.509-1.459-4.358-3.536-5.664-6.111-1.234-2.433-1.814-5.038-1.985-7.745-.098-1.56-.042-3.118.126-4.671.205-1.882.564-3.736 1.055-5.564l.314-1.164-1.429-.618c-3.526-1.562-6.867-3.441-9.922-5.807-1.587-1.229-3.065-2.576-4.377-4.099-.361-.419-.638-.875-.766-1.417l-.109-.209zm38.996 9.664l.082-.555c.258-1.528 1.108-2.531 2.621-2.941.706-.191 1.428-.235 2.154-.211.744.025 1.488.056 2.232.087 1.972.082 3.943.111 5.915.009 1.781-.092 3.548-.298 5.299-.63 3.792-.72 7.385-2.006 10.794-3.813.198-.105.259-.227.258-.445-.005-9.482-.003-18.963-.007-28.445 0-.906-.037-1.813-.224-2.703-.084-.402-.186-.805-.324-1.191-.536-1.494-1.613-2.388-3.138-2.768-.836-.208-1.687-.26-2.545-.26-15.954.001-31.908.001-47.862.001-.332 0-.665.002-.996.019-.674.035-1.342.12-1.994.303-1.302.365-2.216 1.159-2.66 2.447-.143.416-.247.85-.329 1.283-.181.963-.196 1.94-.196 2.917.001 9.542.001 19.084 0 28.626v.323l.396.209c5.031 2.575 10.379 3.931 16.018 4.158 2.103.084 4.206.025 6.308-.078.944-.046 1.89-.117 2.832.033.884.141 1.672.461 2.334 1.096.871.837 1.781 1.632 2.759 2.345l.273.184zM38.718 33.934c3.155.081 5.677 1.14 7.594 3.454 1.468 1.771 2.102 3.833 1.867 6.123-.243 2.37-1.364 4.285-3.206 5.776-1.452 1.175-3.122 1.848-4.98 2.041-2.514.26-4.819-.311-6.86-1.816-1.868-1.378-3.062-3.209-3.436-5.514-.372-2.294.15-4.403 1.536-6.269 1.483-1.997 3.491-3.174 5.928-3.616.572-.106 1.157-.135 1.557-.179zM60.398 33.934c3.131.081 5.638 1.128 7.553 3.413 1.463 1.745 2.109 3.782 1.913 6.051-.186 2.155-1.124 3.967-2.701 5.439-1.551 1.448-3.398 2.272-5.506 2.49-2.639.273-5.035-.37-7.123-2.022-1.732-1.37-2.834-3.151-3.173-5.345-.377-2.436.237-4.635 1.788-6.548 1.48-1.825 3.413-2.904 5.721-3.306.564-.099 1.138-.13 1.528-.172z"/></g></svg>