<svg xmlns="http://www.w3.org/2000/svg" width="100" height="100" viewBox="0 0 100 100"><g fill="#fff"><path d="M11.243 48.963v-.725c.045-.084.102-.165.134-.254.246-.695.848-1.062 1.58-.97.442.054.83.234 1.194.475.27.177.53.367.795.55.06.04.13.068.224.117V18.623c0-.19-.003-.382.002-.574.032-1.195.3-2.335.853-3.394 1.03-1.97 2.593-3.275 4.786-3.776.233-.053.467-.1.7-.147h55.442c.075.02.15.046.226.063.333.073.675.12 1 .218 1.988.61 3.4 1.9 4.322 3.738.57 1.134.806 2.345.805 3.615-.006 9.76-.003 19.52-.003 29.28 0 .09-.004.18 0 .272.004.063.02.126.033.214.103-.064.18-.11.253-.16.215-.15.426-.303.643-.45.406-.274.84-.475 1.334-.524.583-.058 1.136.237 1.396.758.057.114.093.24.14.358v1.027c-.05.15-.094.302-.15.45-.162.443-.458.798-.764 1.147-1.64 1.873-3.52 3.474-5.543 4.913-3.038 2.16-6.312 3.888-9.746 5.325-.1.042-.196.09-.306.14.122.447.24.87.353 1.297.62 2.36 1.04 4.752 1.158 7.19.073 1.47.036 2.936-.148 4.398-.19 1.512-.52 2.99-1.047 4.42-.972 2.637-2.472 4.913-4.663 6.702-1.713 1.4-3.647 2.34-5.83 2.745-.304.057-.608.11-.912.167h-2.235c-.055-.02-.11-.043-.166-.055-.492-.104-.994-.17-1.473-.313-2.122-.64-3.718-1.912-4.648-3.955-.536-1.174-.718-2.418-.718-3.7 0-4.67-.007-9.338-.013-14.007 0-.087-.013-.174-.02-.28-.675-.167-1.335-.332-2.03-.506v.364l-.023 10.535c-.003 1.25-.012 2.496-.007 3.744.003.686-.024 1.367-.15 2.043-.258 1.373-.81 2.607-1.756 3.647-1.124 1.234-2.537 1.952-4.152 2.3-.322.068-.648.122-.973.183h-2.175c-.056-.018-.112-.045-.17-.052-1.715-.195-3.31-.753-4.795-1.617-2.51-1.46-4.358-3.536-5.664-6.11-1.234-2.434-1.814-5.04-1.985-7.746-.097-1.56-.04-3.118.127-4.67.205-1.883.564-3.737 1.055-5.565l.314-1.164c-.49-.212-.96-.41-1.43-.618-3.525-1.562-6.866-3.44-9.92-5.807-1.588-1.23-3.066-2.576-4.378-4.1-.36-.418-.638-.874-.766-1.416-.018-.074-.072-.14-.11-.21zm38.996 9.664c.03-.217.053-.387.08-.555.26-1.528 1.11-2.53 2.622-2.94.706-.192 1.428-.236 2.154-.212.744.025 1.488.056 2.232.087 1.972.082 3.943.11 5.915.01 1.78-.093 3.548-.3 5.3-.63 3.79-.72 7.384-2.007 10.793-3.814.198-.105.26-.227.258-.445-.005-9.482-.003-18.963-.007-28.445 0-.906-.037-1.813-.224-2.703-.084-.402-.186-.805-.324-1.19-.537-1.495-1.614-2.39-3.14-2.77-.835-.207-1.686-.26-2.544-.26-15.954.002-31.908.002-47.862.002-.332 0-.665.002-.996.02-.674.034-1.342.12-1.994.302-1.302.365-2.216 1.16-2.66 2.447-.143.417-.247.85-.33 1.284-.18.963-.195 1.94-.195 2.917v28.95c.147.078.27.145.395.21 5.03 2.574 10.38 3.93 16.018 4.157 2.103.084 4.206.025 6.308-.078.945-.047 1.89-.118 2.833.032.884.14 1.672.46 2.334 1.096.87.837 1.78 1.632 2.76 2.345.08.058.164.11.272.184zM38.718 33.934c3.155.08 5.677 1.14 7.594 3.454 1.468 1.77 2.102 3.833 1.867 6.123-.244 2.37-1.365 4.286-3.207 5.777-1.452 1.175-3.122 1.848-4.98 2.04-2.514.26-4.82-.31-6.86-1.815-1.868-1.378-3.062-3.21-3.436-5.514-.372-2.294.15-4.403 1.536-6.27 1.483-1.996 3.49-3.173 5.928-3.615.573-.106 1.158-.135 1.558-.18zM60.398 33.934c3.13.08 5.638 1.128 7.553 3.413 1.464 1.745 2.11 3.782 1.914 6.05-.186 2.156-1.124 3.968-2.7 5.44-1.552 1.448-3.4 2.272-5.507 2.49-2.64.273-5.035-.37-7.123-2.022-1.732-1.37-2.834-3.15-3.173-5.345-.376-2.436.238-4.635 1.79-6.548 1.48-1.825 3.412-2.904 5.72-3.306.564-.1 1.138-.13 1.528-.172z"/></g></svg>