<svg xmlns="http://www.w3.org/2000/svg" width="100" height="100" viewBox="0 0 100 100"><path fill="#fff" d="M92.894 40.247c0 3.918-3.18 7.098-7.098 7.098-3.918 0-7.098-3.18-7.098-7.098s3.18-7.098 7.098-7.098c3.918 0 7.098 3.18 7.098 7.098zm-7.133-13.214c-7.278 0-13.188 5.869-13.254 13.132l-8.259 11.835c-.336-.035-.678-.055-1.024-.055-1.845 0-3.569.507-5.051 1.392l-37.401-15.042c-.977-4.437-4.943-7.781-9.664-7.781-5.451 0-9.896 4.459-9.896 9.91 0 5.451 4.445 9.896 9.896 9.896 1.845 0 3.569-.507 5.051-1.392l37.401 15.016c.968 4.448 4.934 7.794 9.664 7.794 5.124 0 9.352-3.928 9.842-8.927l12.695-9.282c7.317 0 13.254-5.926 13.254-13.241 0-7.32-5.937-13.255-13.254-13.255zm0 4.368c4.903 0 8.886 3.984 8.886 8.886 0 4.903-3.984 8.873-8.886 8.873-4.903 0-8.886-3.97-8.886-8.873-.001-4.902 3.983-8.886 8.886-8.886zm-74.654 1.734c2.794 0 5.21 1.561 6.429 3.863l-3.617-1.447v.014c-2.914-1.047-6.152.378-7.317 3.276-1.165 2.898.175 6.179 3.003 7.439v.014l3.071 1.229c-.505.11-1.031.177-1.57.177-4.033 0-7.276-3.243-7.276-7.276s3.244-7.289 7.277-7.289zm52.117 21.431c4.033 0 7.276 3.242 7.276 7.276 0 4.033-3.242 7.276-7.276 7.276-2.805 0-5.228-1.564-6.443-3.877 1.196.483 2.395.961 3.59 1.447 2.965 1.192 6.343-.241 7.535-3.208 1.192-2.965-.256-6.33-3.221-7.521l-3.03-1.215c.504-.111 1.03-.178 1.569-.178z"/></svg>