<svg xmlns="http://www.w3.org/2000/svg" width="100" height="100" viewBox="0 0 100 100"><path fill="#fff" d="M92.894 40.247c0 3.918-3.18 7.098-7.098 7.098-3.918 0-7.098-3.18-7.098-7.098s3.18-7.098 7.098-7.098c3.918 0 7.098 3.18 7.098 7.097zM85.76 27.033c-7.277 0-13.187 5.87-13.253 13.132L64.247 52c-.335-.035-.677-.055-1.023-.055-1.845 0-3.57.507-5.05 1.392L20.77 38.295c-.977-4.437-4.943-7.78-9.664-7.78-5.45 0-9.896 4.458-9.896 9.91 0 5.45 4.445 9.895 9.896 9.895 1.845 0 3.57-.507 5.05-1.392L53.56 63.944c.968 4.448 4.934 7.794 9.664 7.794 5.124 0 9.352-3.928 9.842-8.927l12.695-9.28c7.318 0 13.255-5.927 13.255-13.242 0-7.32-5.937-13.255-13.254-13.255zm0 4.368c4.904 0 8.887 3.985 8.887 8.887 0 4.903-3.984 8.873-8.886 8.873-4.902 0-8.885-3.97-8.885-8.873 0-4.902 3.983-8.886 8.886-8.886zm-74.653 1.735c2.794 0 5.21 1.56 6.43 3.863l-3.618-1.447v.015c-2.915-1.047-6.153.378-7.318 3.276-1.165 2.9.175 6.18 3.003 7.44v.014l3.07 1.23c-.504.11-1.03.176-1.57.176-4.032 0-7.275-3.243-7.275-7.276s3.244-7.29 7.277-7.29zm52.117 21.43c4.033 0 7.276 3.243 7.276 7.277 0 4.033-3.242 7.276-7.276 7.276-2.805 0-5.228-1.564-6.443-3.877 1.197.484 2.396.962 3.59 1.448 2.966 1.192 6.344-.24 7.536-3.208 1.192-2.965-.256-6.33-3.22-7.52l-3.03-1.216c.503-.11 1.03-.178 1.568-.178z"/></svg>