<?xml version="1.0" encoding="utf-8"?>
<!-- Generator: Adobe Illustrator 17.0.0, SVG Export Plug-In . SVG Version: 6.00 Build 0)  -->
<!DOCTYPE svg PUBLIC "-//W3C//DTD SVG 1.1//EN" "http://www.w3.org/Graphics/SVG/1.1/DTD/svg11.dtd">
<svg version="1.1" id="Layer_1" xmlns="http://www.w3.org/2000/svg" xmlns:xlink="http://www.w3.org/1999/xlink" x="0px" y="0px"
	 width="100px" height="100px" viewBox="0 0 100 100" enable-background="new 0 0 100 100" xml:space="preserve">
<g>
	<rect x="28.95" y="71.453" fill="#FFFFFF" width="30.883" height="6.596"/>
	
		<rect x="59.371" y="22.741" transform="matrix(0.171 0.9853 -0.9853 0.171 87.6706 -52.1236)" fill="#FFFFFF" width="30.881" height="6.596"/>
	
		<rect x="29.459" y="61.557" transform="matrix(0.9958 0.0917 -0.0917 0.9958 6.1356 -3.8436)" fill="#FFFFFF" width="30.881" height="6.596"/>
	
		<rect x="31.398" y="50.259" transform="matrix(0.9657 0.2596 -0.2596 0.9657 15.5088 -10.323)" fill="#FFFFFF" width="30.883" height="6.596"/>
	
		<rect x="36.082" y="38.535" transform="matrix(0.8613 0.508 -0.508 0.8613 28.3962 -20.3751)" fill="#FFFFFF" width="30.884" height="6.595"/>
	
		<rect x="46.156" y="28.018" transform="matrix(0.5634 0.8262 -0.8262 0.5634 52.7627 -37.2175)" fill="#FFFFFF" width="30.883" height="6.596"/>
	<path fill="#FFFFFF" d="M65.079,56.345v26.965H24.573V56.345h-5.275v32.139h0.052c0,0.025,1.54,0.025,1.54,0.025h49.413v-0.025
		c0.052,0,0.052-1.541,0.052-1.541V56.345H65.079z"/>
</g>
</svg>
