<?xml version="1.0" encoding="utf-8"?>
<!-- Generator: Adobe Illustrator 17.0.0, SVG Export Plug-In . SVG Version: 6.00 Build 0)  -->
<!DOCTYPE svg PUBLIC "-//W3C//DTD SVG 1.1//EN" "http://www.w3.org/Graphics/SVG/1.1/DTD/svg11.dtd">
<svg version="1.1" id="Layer_1" xmlns="http://www.w3.org/2000/svg" xmlns:xlink="http://www.w3.org/1999/xlink" x="0px" y="0px"
	 width="100px" height="100px" viewBox="0 0 100 100" enable-background="new 0 0 100 100" xml:space="preserve">
<path fill="#FFFFFF" d="M71.308,49.022h-0.212C68.864,58.711,58.947,64.36,49.582,64.36c-15.229,0-22.799-12.154-22.799-26.213
	c0-14.698,8.11-26.841,23.541-26.841c10.448,0,18.649,6.928,20.772,15.874h0.212V12.583h2.135v52.941
	c0,14.911-8.527,21.941-22.807,21.941c-11.072,0-20.56-5.003-20.88-17.258h2.142c0.426,10.866,8.734,15.125,18.634,15.125
	c13.214,0,20.775-6.28,20.775-19.808V49.022z M50.324,13.442c-14.172,0-21.413,11.395-21.413,24.705
	c0,13.526,7.241,24.087,20.548,24.087c14.073,0,21.75-10.888,21.75-24.087C71.308,25.57,64.074,13.442,50.324,13.442"/>
</svg>
