<?xml version="1.0" encoding="utf-8"?>
<!-- Generator: Adobe Illustrator 17.0.0, SVG Export Plug-In . SVG Version: 6.00 Build 0)  -->
<!DOCTYPE svg PUBLIC "-//W3C//DTD SVG 1.1//EN" "http://www.w3.org/Graphics/SVG/1.1/DTD/svg11.dtd">
<svg version="1.1" id="Layer_1" xmlns="http://www.w3.org/2000/svg" xmlns:xlink="http://www.w3.org/1999/xlink" x="0px" y="0px"
	 width="100px" height="100px" viewBox="0 0 100 100" enable-background="new 0 0 100 100" xml:space="preserve">
<g id="Logo">
	<path id="Base" fill="#FFFFFF" d="M84.174,89.766H14.166c-2.63,0-4.762-2.132-4.762-4.762V14.996c0-2.63,2.132-4.762,4.762-4.762
		h70.008c2.63,0,4.762,2.132,4.762,4.762v70.007C88.936,87.634,86.804,89.766,84.174,89.766z"/>
	<path id="K" fill="#231F20" d="M45.793,43.081l7.97-11.547c1.506-2.175,3.452-3.263,5.837-3.263c1.945,0,3.629,0.69,5.052,2.071
		c1.422,1.381,2.133,3.034,2.133,4.958c0,1.423-0.376,2.678-1.129,3.765L58.47,49.514l8.786,11.139
		c0.879,1.109,1.318,2.406,1.318,3.891c0,1.967-0.69,3.656-2.071,5.067c-1.381,1.412-3.055,2.118-5.021,2.118
		c-2.155,0-3.797-0.7-4.927-2.102l-10.762-13.43v7.405c0,2.113-0.366,3.755-1.098,4.926c-1.339,2.133-3.284,3.2-5.836,3.2
		c-2.322,0-4.122-0.785-5.397-2.353c-1.192-1.444-1.788-3.358-1.788-5.742V36.178c0-2.259,0.606-4.12,1.82-5.585
		c1.276-1.548,3.033-2.322,5.271-2.322c2.134,0,3.912,0.774,5.334,2.322c0.794,0.858,1.297,1.725,1.505,2.604
		c0.126,0.544,0.189,1.558,0.189,3.043V43.081z"/>
</g>
</svg>
