<?xml version="1.0" encoding="utf-8"?>
<!-- Generator: Adobe Illustrator 17.0.0, SVG Export Plug-In . SVG Version: 6.00 Build 0)  -->
<!DOCTYPE svg PUBLIC "-//W3C//DTD SVG 1.1//EN" "http://www.w3.org/Graphics/SVG/1.1/DTD/svg11.dtd">
<svg version="1.1" id="Layer_1" xmlns="http://www.w3.org/2000/svg" xmlns:xlink="http://www.w3.org/1999/xlink" x="0px" y="0px"
	 width="100px" height="100px" viewBox="0 0 100 100" enable-background="new 0 0 100 100" xml:space="preserve">
<g>
	<g>
		<path fill="none" d="M35.697,59.825c1.196-1.103,0.403-4.605,0.403-4.605s-1.647,3.138-3.296,5.117
			c-1.649,1.973-4.134,2.708-4.134,2.708S31.41,63.785,35.697,59.825z"/>
		<path fill="none" d="M61.447,70.287c1.987,6.928-4.173,13.087-4.173,13.087c4.617-1.98,6.086-8.594,5.917-10.247
			C63.029,71.477,61.447,70.287,61.447,70.287z"/>
		<path fill="#FFFFFF" d="M60.685,67.426c-2.828-4.314-8.023-8.189-18.334-12.705l-1.291-4.685
			c-3.126-0.982-8.448-3.217-9.693-4.772c-1.318-1.651-0.987-5.772-0.987-5.772s0.987,3.135,1.978,4.453
			c0.99,1.319,8.559,4.25,8.559,4.25l0.008,0.023c3.392,0.996,27.691,7.525,34.523-7.856c6.347-14.282-26.753-41.884-44.35-22.64
			c-4.558,4.987-7.807,12.643-5.909,22.128l1.806,14.304l-6.058,1.8c0,0-0.516,2.709,0.9,7.09c0.756-3.073,0.205-4.088,1.421-4.768
			h3.996l0.254,1.161c0,0-1.675,2.832-2.706,3.994c-1.158,2.321-0.512,5.8-0.512,5.8l2.062-4.64l2.319-1.548
			c0,0,2.485-0.735,4.134-2.708c1.649-1.98,3.296-5.117,3.296-5.117s0.793,3.502-0.403,4.605c-4.287,3.96-7.027,3.22-7.027,3.22
			c2.834,13.531,9.358,18.017,9.358,18.017c-9.348,2.036-10.009,7.809-10.009,7.809l1.815-1.223h24.25
			c19.132-10.652,25.073-29.241,25.073-29.241S67.511,69.233,60.685,67.426z M57.273,83.373c0,0,6.16-6.159,4.173-13.087
			c0,0,1.582,1.19,1.744,2.839C63.36,74.78,61.89,81.394,57.273,83.373z"/>
	</g>
	<path fill="#231F20" d="M65.059,31.006c-1.925,6.085-9.598,9.08-17.146,6.696c-7.538-2.388-12.098-9.253-10.175-15.335
		c1.929-6.085,9.602-9.08,17.148-6.696C62.428,18.06,66.984,24.926,65.059,31.006z"/>
	<path fill="#FFFFFF" d="M53.575,26.323c-1.413,3.635-3.205,6.329-3.991,6.021c-0.787-0.307-0.276-3.5,1.146-7.127
		c1.412-3.635,3.192-6.331,3.984-6.022C55.504,19.503,54.99,22.696,53.575,26.323z"/>
	<circle fill="#231F20" cx="51.87" cy="26.909" r="0.921"/>
	<circle fill="#231F20" cx="52.176" cy="25.475" r="0.566"/>
</g>
</svg>
