<?xml version="1.0" encoding="utf-8"?>
<!-- Generator: Adobe Illustrator 17.0.0, SVG Export Plug-In . SVG Version: 6.00 Build 0)  -->
<!DOCTYPE svg PUBLIC "-//W3C//DTD SVG 1.1//EN" "http://www.w3.org/Graphics/SVG/1.1/DTD/svg11.dtd">
<svg version="1.1" id="Layer_1" xmlns="http://www.w3.org/2000/svg" xmlns:xlink="http://www.w3.org/1999/xlink" x="0px" y="0px"
	 width="100px" height="100px" viewBox="0 0 100 100" enable-background="new 0 0 100 100" xml:space="preserve">
<g id="W0Q7xW.tif">
	<g>
		<g>
			<path fill="#FFFFFF" d="M11.243,48.963c0-0.242,0-0.483,0-0.725c0.045-0.084,0.102-0.165,0.134-0.254
				c0.246-0.695,0.848-1.062,1.581-0.971c0.441,0.055,0.829,0.235,1.193,0.476c0.268,0.178,0.528,0.368,0.794,0.55
				c0.061,0.042,0.131,0.069,0.224,0.118c0-0.159,0-0.279,0-0.4c0-9.711,0-19.423,0-29.134c0-0.191-0.002-0.382,0.003-0.574
				c0.032-1.194,0.299-2.334,0.853-3.393c1.03-1.969,2.593-3.275,4.786-3.776c0.232-0.053,0.466-0.099,0.7-0.147
				c18.48,0,36.961,0,55.441,0c0.075,0.021,0.15,0.046,0.226,0.063c0.333,0.073,0.675,0.119,1,0.218
				c1.988,0.61,3.399,1.899,4.322,3.738c0.569,1.134,0.806,2.345,0.805,3.615c-0.006,9.76-0.003,19.52-0.003,29.28
				c0,0.091-0.004,0.181,0.001,0.272c0.003,0.064,0.018,0.127,0.032,0.215c0.103-0.064,0.18-0.109,0.253-0.16
				c0.215-0.149,0.426-0.303,0.643-0.45c0.405-0.274,0.838-0.475,1.333-0.524c0.583-0.058,1.136,0.237,1.396,0.758
				c0.057,0.114,0.093,0.239,0.139,0.358c0,0.342,0,0.684,0,1.027c-0.049,0.15-0.093,0.302-0.148,0.45
				c-0.163,0.443-0.459,0.798-0.765,1.147c-1.639,1.873-3.52,3.474-5.543,4.913c-3.038,2.16-6.312,3.888-9.746,5.325
				c-0.099,0.042-0.196,0.09-0.306,0.141c0.121,0.446,0.24,0.87,0.352,1.296c0.62,2.359,1.039,4.752,1.158,7.191
				c0.072,1.468,0.035,2.935-0.149,4.397c-0.191,1.512-0.521,2.989-1.047,4.419c-0.972,2.638-2.472,4.914-4.663,6.703
				c-1.713,1.399-3.647,2.339-5.83,2.745c-0.304,0.057-0.608,0.111-0.912,0.167c-0.745,0-1.49,0-2.235,0
				c-0.055-0.019-0.109-0.043-0.166-0.055c-0.491-0.104-0.993-0.169-1.472-0.313c-2.122-0.638-3.718-1.911-4.648-3.954
				c-0.535-1.174-0.717-2.418-0.717-3.701c0-4.669-0.007-9.337-0.013-14.006c0-0.087-0.012-0.174-0.02-0.279
				c-0.674-0.168-1.334-0.333-2.029-0.507c0,0.146,0,0.255,0,0.364c-0.008,3.512-0.015,7.023-0.023,10.535
				c-0.003,1.248-0.012,2.495-0.007,3.743c0.003,0.686-0.024,1.367-0.15,2.043c-0.258,1.373-0.809,2.607-1.756,3.647
				c-1.124,1.234-2.537,1.952-4.152,2.299c-0.322,0.069-0.648,0.123-0.973,0.184c-0.725,0-1.449,0-2.174,0
				c-0.056-0.018-0.112-0.045-0.169-0.052C37.08,87.79,35.486,87.232,34,86.368c-2.509-1.459-4.358-3.536-5.664-6.111
				c-1.234-2.433-1.814-5.038-1.985-7.745c-0.098-1.56-0.042-3.118,0.126-4.671c0.205-1.882,0.564-3.736,1.055-5.564
				c0.103-0.385,0.207-0.77,0.314-1.164c-0.49-0.212-0.961-0.411-1.429-0.618c-3.526-1.562-6.867-3.441-9.922-5.807
				c-1.587-1.229-3.065-2.576-4.377-4.099c-0.361-0.419-0.638-0.875-0.766-1.417C11.334,49.098,11.28,49.032,11.243,48.963z
				 M50.239,58.627c0.032-0.217,0.054-0.387,0.082-0.555c0.258-1.528,1.108-2.531,2.621-2.941c0.706-0.191,1.428-0.235,2.154-0.211
				c0.744,0.025,1.488,0.056,2.232,0.087c1.972,0.082,3.943,0.111,5.915,0.009c1.781-0.092,3.548-0.298,5.299-0.63
				c3.792-0.72,7.385-2.006,10.794-3.813c0.198-0.105,0.259-0.227,0.258-0.445c-0.005-9.482-0.003-18.963-0.007-28.445
				c0-0.906-0.037-1.813-0.224-2.703c-0.084-0.402-0.186-0.805-0.324-1.191c-0.536-1.494-1.613-2.388-3.138-2.768
				c-0.836-0.208-1.687-0.26-2.545-0.26c-15.954,0.001-31.908,0.001-47.862,0.001c-0.332,0-0.665,0.002-0.996,0.019
				c-0.674,0.035-1.342,0.12-1.994,0.303c-1.302,0.365-2.216,1.159-2.66,2.447c-0.143,0.416-0.247,0.85-0.329,1.283
				c-0.181,0.963-0.196,1.94-0.196,2.917c0.001,9.542,0.001,19.084,0,28.626c0,0.109,0,0.219,0,0.323
				c0.148,0.078,0.271,0.145,0.396,0.209c5.031,2.575,10.379,3.931,16.018,4.158c2.103,0.084,4.206,0.025,6.308-0.078
				c0.944-0.046,1.89-0.117,2.832,0.033c0.884,0.141,1.672,0.461,2.334,1.096c0.871,0.837,1.781,1.632,2.759,2.345
				C50.048,58.501,50.131,58.553,50.239,58.627z"/>
			<path fill="#FFFFFF" d="M38.718,33.934c3.155,0.081,5.677,1.14,7.594,3.454c1.468,1.771,2.102,3.833,1.867,6.123
				c-0.243,2.37-1.364,4.285-3.206,5.776c-1.452,1.175-3.122,1.848-4.98,2.041c-2.514,0.26-4.819-0.311-6.86-1.816
				c-1.868-1.378-3.062-3.209-3.436-5.514c-0.372-2.294,0.15-4.403,1.536-6.269c1.483-1.997,3.491-3.174,5.928-3.616
				C37.733,34.007,38.318,33.978,38.718,33.934z"/>
			<path fill="#FFFFFF" d="M60.398,33.934c3.131,0.081,5.638,1.128,7.553,3.413c1.463,1.745,2.109,3.782,1.913,6.051
				c-0.186,2.155-1.124,3.967-2.701,5.439c-1.551,1.448-3.398,2.272-5.506,2.49c-2.639,0.273-5.035-0.37-7.123-2.022
				c-1.732-1.37-2.834-3.151-3.173-5.345c-0.377-2.436,0.237-4.635,1.788-6.548c1.48-1.825,3.413-2.904,5.721-3.306
				C59.434,34.007,60.008,33.976,60.398,33.934z"/>
		</g>
	</g>
</g>
</svg>
