<?xml version="1.0" encoding="utf-8"?>
<!-- Generator: Adobe Illustrator 17.0.0, SVG Export Plug-In . SVG Version: 6.00 Build 0)  -->
<!DOCTYPE svg PUBLIC "-//W3C//DTD SVG 1.1//EN" "http://www.w3.org/Graphics/SVG/1.1/DTD/svg11.dtd">
<svg version="1.1" id="Layer_1" xmlns="http://www.w3.org/2000/svg" xmlns:xlink="http://www.w3.org/1999/xlink" x="0px" y="0px"
	 width="100px" height="100px" viewBox="0 0 100 100" enable-background="new 0 0 100 100" xml:space="preserve">
<path id="Gears_1_" fill="#FFFFFF" d="M92.894,40.247c0,3.918-3.18,7.098-7.098,7.098c-3.918,0-7.098-3.18-7.098-7.098
	s3.18-7.098,7.098-7.098C89.714,33.149,92.894,36.329,92.894,40.247z M85.761,27.033c-7.278,0-13.188,5.869-13.254,13.132L64.248,52
	c-0.336-0.035-0.678-0.055-1.024-0.055c-1.845,0-3.569,0.507-5.051,1.392L20.772,38.295c-0.977-4.437-4.943-7.781-9.664-7.781
	c-5.451,0-9.896,4.459-9.896,9.91c0,5.451,4.445,9.896,9.896,9.896c1.845,0,3.569-0.507,5.051-1.392L53.56,63.944
	c0.968,4.448,4.934,7.794,9.664,7.794c5.124,0,9.352-3.928,9.842-8.927l12.695-9.282c7.317,0,13.254-5.926,13.254-13.241
	C99.015,32.968,93.078,27.033,85.761,27.033z M85.761,31.401c4.903,0,8.886,3.984,8.886,8.886c0,4.903-3.984,8.873-8.886,8.873
	c-4.903,0-8.886-3.97-8.886-8.873C76.874,35.385,80.858,31.401,85.761,31.401z M11.107,33.135c2.794,0,5.21,1.561,6.429,3.863
	l-3.617-1.447v0.014c-2.914-1.047-6.152,0.378-7.317,3.276c-1.165,2.898,0.175,6.179,3.003,7.439v0.014l3.071,1.229
	c-0.505,0.11-1.031,0.177-1.57,0.177c-4.033,0-7.276-3.243-7.276-7.276S7.074,33.135,11.107,33.135z M63.224,54.566
	c4.033,0,7.276,3.242,7.276,7.276c0,4.033-3.242,7.276-7.276,7.276c-2.805,0-5.228-1.564-6.443-3.877
	c1.196,0.483,2.395,0.961,3.59,1.447c2.965,1.192,6.343-0.241,7.535-3.208c1.192-2.965-0.256-6.33-3.221-7.521l-3.03-1.215
	C62.159,54.633,62.685,54.566,63.224,54.566z"/>
</svg>
